<?xml version="1.0" encoding="UTF-8"?><svg id="Calque_2" xmlns="http://www.w3.org/2000/svg" viewBox="0 0 13 37"><g id="Calque_1-2"><path d="M6.5,0c1.8,0,3.33.63,4.6,1.9s1.9,2.8,1.9,4.6v24.5l-.05.55c-.23,1.4-.88,2.6-1.95,3.6l.15-.1c-1.27,1.3-2.82,1.95-4.65,1.95s-3.33-.63-4.6-1.9c-.87-.83-1.43-1.82-1.7-2.95l-.2-1.15V6.5c0-1.77.62-3.28,1.85-4.55l.1-.1C3.22.62,4.73,0,6.5,0M6.5,3c-.97,0-1.8.33-2.5,1-.67.7-1,1.53-1,2.5v24.5h.05c.1.77.42,1.42.95,1.95.7.7,1.53,1.05,2.5,1.05s1.78-.35,2.45-1.05c.57-.53.92-1.18,1.05-1.95V6.5c0-.97-.35-1.8-1.05-2.5-.67-.67-1.48-1-2.45-1" fill="#802b2b"/><path d="M6.5,3c.97,0,1.78.33,2.45,1,.7.7,1.05,1.53,1.05,2.5v24.5c-.13.77-.48,1.42-1.05,1.95-.67.7-1.48,1.05-2.45,1.05s-1.8-.35-2.5-1.05c-.53-.53-.85-1.18-.95-1.95h-.05V6.5c0-.97.33-1.8,1-2.5.7-.67,1.53-1,2.5-1" fill="#ac3939"/></g></svg>