<?xml version="1.0" encoding="UTF-8"?><svg id="Calque_2" xmlns="http://www.w3.org/2000/svg" viewBox="0 0 102.5 83.6"><g id="Calque_1-2"><path d="M68.65,6.1h7.3l.9.2.7.55,24.55,31.15.4.9-.05.95-12.6,42.4c-.17.47-.47.85-.9,1.15l-1.45.2-4.25-.85.55-1.95,4.1.85,12.6-42.4-24.55-31.15h-4.2l-3.1-2M19.25,82.75l-4.25.85-1.45-.2-.9-1.15L.05,39.85l-.05-.95.4-.9L24.95,6.85l.7-.55.9-.2h7.4l-3.1,2h-4.3L2,39.25l12.6,42.4,4.1-.85.55,1.95M43.4.1l.55-.1h14.65l.55.1v2.25l-.55-.35h-14.65l-.55.35V.1" fill="#c4c4c4"/><path d="M71.75,8.1h4.2l24.55,31.15-12.6,42.4-4.1-.85-.2-.05,11.55-37.7-20.85-24.2,1.55-6.5c.1-.43.07-.85-.1-1.25l-.75-.9-3.25-2.1M43.4,2.35l.55-.35h14.65l.55.35,4.05,28.9-11.95-5-11.9,5,4.05-28.9M30.85,8.1l-3.3,2.1c-.37.2-.63.5-.8.9-.17.4-.2.82-.1,1.25l1.6,6.5L7.35,43.05l11.55,37.7-.2.05-4.1.85L2,39.25,26.55,8.1h4.3" fill="#eee"/><path d="M30.85,8.1l3.1-2L42.9.35c.17-.13.33-.22.5-.25v2.25l-14.8,9.5,14.85,60.65h15.65l14.8-60.65-14.75-9.5V.1l.55.25,8.95,5.75,3.1,2,3.25,2.1.75.9c.17.4.2.82.1,1.25l-1.55,6.5-1.8,7.25-6.3,25.75-2.1,8.75v.1l-.95,3.7-2.1,8.6c-.1.43-.33.8-.7,1.1-.37.27-.78.4-1.25.4h-15.65c-.47,0-.87-.13-1.2-.4-.4-.3-.65-.67-.75-1.1l-2.1-8.65-.95-3.85-2.1-8.65-6.35-25.75-1.75-7.25-1.6-6.5c-.1-.43-.07-.85.1-1.25.17-.4.43-.7.8-.9l3.3-2.1" fill="#a1a1a1"/><path d="M43.4,2.35l-4.05,28.9,11.9-5,11.95,5-4.05-28.9,14.75,9.5-14.8,60.65h-15.65L28.6,11.85l14.8-9.5M51.25,29.75l-11.9,5,4.45,18.1.5,2.15,6.95,3.65,7-3.6v-.05l4.95-20.25-11.95-5" fill="#dbdbdb"/><path d="M51.25,29.75v26.9l-6.95-3.65v-.15h-.5l-4.45-18.1,11.9-5" fill="#4a3c55"/><path d="M74.3,18.85l20.85,24.2-11.55,37.7-2.95-.6,2.75-11.05-19.15-6.4-.15-2v-.1l2.1-8.75h14.1l4-12.75-11.25-13h-.55l1.8-7.25M18.9,80.75L7.35,43.05l20.9-24.2,1.75,7.25h-.55l-11.25,13,4,12.75h14.15l2.1,8.65-.2,2.2-19.15,6.4,2.75,11.05-2.95.6" fill="#bb6c2e"/><path d="M30,26.1l6.35,25.75h-14.15l-4-12.75,11.25-13h.55M72.5,26.1h.55l11.25,13-4,12.75h-14.1l6.3-25.75" fill="#a36331"/><path d="M83.25,82.75l-3-.65-.95-.45-.55-.9c-.13-.37-.15-.72-.05-1.05l2.3-9.3-17.35-5.8-.5-.2.95-3.7.15,2,19.15,6.4-2.75,11.05,2.95.6.2.05-.55,1.95M39.4,64.35l-.55.25-17.35,5.8,2.3,9.3-.05,1.05-.55.9-.95.45-3,.65-.55-1.95.2-.05,2.95-.6-2.75-11.05,19.15-6.4.2-2.2.95,3.85" fill="#704423"/><path d="M51.25,29.75l11.95,5-4.95,20.25v.05l-7,3.6-6.95-3.65-.5-2.15h.5v.15l6.95,3.65v-26.9" fill="#544763"/></g></svg>