<?xml version="1.0" encoding="UTF-8"?><svg id="Calque_2" xmlns="http://www.w3.org/2000/svg" viewBox="0 0 81 84"><g id="Calque_1-2"><path d="M53.95,0h4.2c.37,0,.7.1,1,.3l20.85,11.95.75.7.25,1v46.75l-.25,1-.75.75-25.95,15.15,1.3-3.05,23.65-13.85V13.95L58.15,2h-1.7l-2.5-2M27,77.6L1,62.45l-.75-.75-.25-1V13.95c0-.37.08-.7.25-1l.75-.7L21.85.3c.3-.2.63-.3,1-.3h4.2l-2.5,2h-1.7L2,13.95v46.75l23.7,13.85,1.3,3.05M36.6,9.6h7.8v2h-7.8v-2" fill="#c4c4c4"/><path d="M27.05,0h5.15c.57,0,1.03.2,1.4.6.4.37.6.83.6,1.4v7.6h-2V2h-7.65l2.5-2M46.8,9.6V2c0-.57.2-1.03.6-1.4.37-.4.83-.6,1.4-.6h5.15l2.5,2h-7.65v7.6h-2" fill="#704423"/><path d="M46.8,9.6h15c.4,0,.78.15,1.15.45.37.27.62.62.75,1.05.1.4.07.82-.1,1.25l-2.75,6.75-.75.9-1.1.35h-6.35v12.75l9.2,8.15.5.7.15.8v14.1l-.15.8-5.55,13.35-1.45,3.55-1.3,3.05-2.2,5.2-.75.85-1.1.35h-19c-.4,0-.77-.12-1.1-.35l-.75-.85-2.15-5.2-1.3-3.05-1.5-3.55-5.55-13.35-.15-.8v-14.1l.2-.8c.1-.27.27-.5.5-.7l9.15-8.15v-12.75h-6.35c-.4,0-.77-.12-1.1-.35-.33-.23-.58-.53-.75-.9l-2.75-6.75c-.17-.43-.18-.85-.05-1.25.1-.43.33-.78.7-1.05.37-.3.77-.45,1.2-.45h17.35v2h-17.35l2.75,6.75h8.35v15.65l-9.85,8.75v14.1l10.5,25.15h19l10.5-25.15v-14.1l-9.85-8.75v-15.65h8.35l2.75-6.75h-17.35v-2h2.4" fill="#a1a1a1"/><path d="M48.8,9.6V2h7.45l5.45,4.2,1.75,1.4,11.7,9.25v41.4l-18.35,12.75,5.55-13.35.15-.8v-14.1l-.15-.8-.5-.7-9.2-8.15v-12.75h6.35l1.1-.35.75-.9,2.75-6.75c.17-.43.2-.85.1-1.25-.13-.43-.38-.78-.75-1.05-.37-.3-.75-.45-1.15-.45h-13M68.9,19.3h-6.65c-.87,0-1.3.43-1.3,1.3v6.65c0,.83.43,1.25,1.3,1.25h6.65c.83,0,1.25-.42,1.25-1.25v-6.65c0-.87-.42-1.3-1.25-1.3M60.95,32.2v6.65c0,.87.43,1.3,1.3,1.3h6.65c.83,0,1.25-.43,1.25-1.3v-6.65c0-.87-.42-1.3-1.25-1.3h-6.65c-.87,0-1.3.43-1.3,1.3M32.2,9.6h-12.95c-.43,0-.83.15-1.2.45-.37.27-.6.62-.7,1.05-.13.4-.12.82.05,1.25l2.75,6.75c.17.37.42.67.75.9.33.23.7.35,1.1.35h6.35v12.75l-9.15,8.15c-.23.2-.4.43-.5.7l-.2.8v14.1l.15.8,5.55,13.35-18.35-12.75V16.85l11.7-9.25,1.75-1.4,5.45-4.2h7.45v7.6M20.05,32.2c0-.87-.43-1.3-1.3-1.3h-6.65c-.83,0-1.25.43-1.25,1.3v6.65c0,.87.42,1.3,1.25,1.3h6.65c.87,0,1.3-.43,1.3-1.3v-6.65M20.05,20.6c0-.87-.43-1.3-1.3-1.3h-6.65c-.83,0-1.25.43-1.25,1.3v6.65c0,.83.42,1.25,1.25,1.25h6.65c.87,0,1.3-.42,1.3-1.25v-6.65" fill="#bb6c2e"/><path d="M56.45,2h1.7l20.85,11.95v46.75l-23.65,13.85,1.45-3.55,18.35-12.75V16.85l-11.7-9.25-1.75-1.4-5.45-4.2h.2M36.6,11.6h7.8v36.25l4.75,8.15h-17.3l4.75-8.15V11.6M24.75,2l-5.45,4.2-1.75,1.4-11.7,9.25v41.4l18.35,12.75,1.5,3.55L2,60.7V13.95L22.85,2h1.9" fill="#eee"/><path d="M44.4,11.6h17.35l-2.75,6.75h-8.35v15.65l9.85,8.75v14.1l-10.5,25.15h-19l-10.5-25.15v-14.1l9.85-8.75v-15.65h-8.35l-2.75-6.75h17.35v36.25l-4.75,8.15h-2.4v3.5l11.05,4.25,11.05-4.25v-3.5h-2.4l-4.75-8.15V11.6" fill="#dbdbdb"/><path d="M60.95,32.2c0-.87.43-1.3,1.3-1.3h6.65c.83,0,1.25.43,1.25,1.3v6.65c0,.87-.42,1.3-1.25,1.3h-6.65c-.87,0-1.3-.43-1.3-1.3v-6.65M68.9,19.3c.83,0,1.25.43,1.25,1.3v6.65c0,.83-.42,1.25-1.25,1.25h-6.65c-.87,0-1.3-.42-1.3-1.25v-6.65c0-.87.43-1.3,1.3-1.3h6.65M20.05,20.6v6.65c0,.83-.43,1.25-1.3,1.25h-6.65c-.83,0-1.25-.42-1.25-1.25v-6.65c0-.87.42-1.3,1.25-1.3h6.65c.87,0,1.3.43,1.3,1.3M20.05,32.2v6.65c0,.87-.43,1.3-1.3,1.3h-6.65c-.83,0-1.25-.43-1.25-1.3v-6.65c0-.87.42-1.3,1.25-1.3h6.65c.87,0,1.3.43,1.3,1.3" fill="#a36331"/><path d="M31.85,56h19.7v1.75l-11.05,4.25-11.05-4.25v-1.75h2.4" fill="#4a3c55"/><path d="M51.55,57.75v1.75l-11.05,4.25-11.05-4.25v-1.75l11.05,4.25,11.05-4.25" fill="#544763"/></g></svg>