<?xml version="1.0" encoding="UTF-8"?><svg id="Calque_2" xmlns="http://www.w3.org/2000/svg" viewBox="0 0 92.8 82.8"><g id="Calque_1-2"><path d="M75.75,3.1l-.85-1.2-16.1,7.3-1.8,8.8-.6-.1v2h-20v-2l-.6.1-1.8-8.8L17.9,1.9l-.85,1.2-.15.25-1.6-1.15.95-1.4c.27-.43.63-.7,1.1-.8l1.35.1,16.1,7.3c.3.1.55.28.75.55l.4.85,1.85,9.1h17.2l1.85-9.1.4-.85c.2-.27.45-.45.75-.55L74.1.1l1.35-.1c.47.1.83.37,1.1.8l.95,1.4-1.6,1.15-.15-.25M31.2,50.55l-2.6,1.55,6.75,24.55c.17.5.12.98-.15,1.45-.23.47-.6.78-1.1.95l-2.7.95-.55-1.95,2.6-.9-7.15-26,4-2.4.9,1.8M62.55,48.75l3.95,2.4-7.15,26,2.6.9-.55,1.95-2.7-.95c-.5-.17-.87-.48-1.1-.95-.27-.47-.32-.95-.15-1.45l6.75-24.55-2.55-1.55.9-1.8" fill="#c4c4c4"/><path d="M75.9,3.35l1.6-1.15,14.95,22.2.35.9-.1.9-20.75,55.4c-.2.5-.55.87-1.05,1.1l-1.5.1-8-2.8.55-1.95,8.1,2.85,11.3-30.1,8.7-23.2.75-2.1-14.9-22.15M15.3,2.2l1.6,1.15L2,25.5l.75,2.1,8.7,23.2,11.3,30.1,8.1-2.85.55,1.95-8,2.8-1.5-.1c-.5-.23-.85-.6-1.05-1.1L.1,26.2l-.1-.9c.07-.33.18-.63.35-.9L15.3,2.2" fill="#704423"/><path d="M75.75,3.1l.15.25,14.9,22.15-.75,2.1-18.55-6.45-4.5,18,14.35,11.65-11.3,30.1-8.1-2.85,8.1-29.2-5.4-4.35,1.45-3,.2-.9v-14.35l-.2-.85-.55-.7-2.55-2.05,2.9-12.2,9.85-7.35M16.9,3.35l.15-.25,9.85,7.35,2.95,12.2-2.6,2.05-.55.7-.2.85v14.35l.2.9,1.5,3-5.45,4.35,8.1,29.2-8.1,2.85-11.3-30.1,14.35-11.65-4.5-18L2.75,27.6l-.75-2.1L16.9,3.35" fill="#bb6c2e"/><path d="M57,18l1.8-8.8,16.1-7.3.85,1.2-9.85,7.35-2.9,12.2-5.35-4.3c-.2-.17-.42-.28-.65-.35M17.05,3.1l.85-1.2,16.1,7.3,1.8,8.8c-.23.07-.45.18-.65.35l-5.3,4.3-2.95-12.2-9.85-7.35M36.4,19.9h20v24.8c-.03-.93-.38-1.73-1.05-2.4-.7-.73-1.57-1.1-2.6-1.1h-12.65c-1.03,0-1.9.37-2.6,1.1-.7.7-1.07,1.53-1.1,2.5v-24.9M64.65,44.5l5.4,4.35-8.1,29.2-2.6-.9,7.15-26-3.95-2.4,2.1-4.25M30.3,48.75l-4,2.4,7.15,26-2.6.9-8.1-29.2,5.45-4.35,2.1,4.25" fill="#eee"/><path d="M56.4,19.9l7.9,6.35v14.35l-7.3,14.75h-21.15l-7.35-14.75v-14.35l7.9-6.35v25.1c.03.73.25,1.38.65,1.95l.45.55c.7.73,1.57,1.1,2.6,1.1h12.65c1.03,0,1.9-.37,2.6-1.1l.45-.5c.37-.6.57-1.27.6-2v-25.1" fill="#dbdbdb"/><path d="M56.4,19.9v-2l.6.1c.23.07.45.18.65.35l5.35,4.3,2.55,2.05.55.7.2.85v14.35l-.2.9-1.45,3-2.1,4.25-.9,1.8-2.85,5.7-.75.8-1.05.3h-21.15c-.37,0-.72-.1-1.05-.3l-.75-.8-2.85-5.7-.9-1.8-2.1-4.25-1.5-3-.2-.9v-14.35l.2-.85.55-.7,2.6-2.05,5.3-4.3c.2-.17.42-.28.65-.35l.6-.1v2l-7.9,6.35v14.35l7.35,14.75h21.15l7.3-14.75v-14.35l-7.9-6.35" fill="#a1a1a1"/><path d="M56.4,44.7v.3c-.03.73-.23,1.4-.6,2l-.45.5c-.7.73-1.57,1.1-2.6,1.1h-12.65c-1.03,0-1.9-.37-2.6-1.1l-.45-.55c-.4-.57-.62-1.22-.65-1.95v-.2c.03-.97.4-1.8,1.1-2.5.7-.73,1.57-1.1,2.6-1.1h12.65c1.03,0,1.9.37,2.6,1.1.67.67,1.02,1.47,1.05,2.4" fill="#4a3c55"/><path d="M81.35,50.8l-14.35-11.65,4.5-18,18.55,6.45-8.7,23.2M2.75,27.6l18.55-6.45,4.5,18-14.35,11.65L2.75,27.6" fill="#a36331"/></g></svg>