<?xml version="1.0" encoding="UTF-8"?><svg id="Calque_2" xmlns="http://www.w3.org/2000/svg" viewBox="0 0 103.8 82.95"><g id="Calque_1-2"><path d="M64.9,6.35l3.95,2,.75.65.35.9.2,2,.25,2.8,1.4,14.6.65,6.85-.15,1-6.85,16.05-3.5,8.3-1.85,4.25-.75.9-1.1.3h-12.7l-1.1-.3-.75-.9-1.8-4.25-3.55-8.35-6.8-16-.15-.95.65-6.95,1.35-14.5.3-2.9.15-1.9c.03-.37.15-.68.35-.95.13-.23.32-.42.55-.55l.2-.1,4-2.05v2.25l-3.1,1.55-2.45,26.25,12.15,28.6h12.7l12.2-28.6-2.5-26.25-3.05-1.55v-2.2" fill="#a1a1a1"/><path d="M70.15,11.9l16.45,13.6h15.2c.57,0,1.05.2,1.45.6.37.37.55.83.55,1.4v5.15l-.25,1-27.4,48.3-.75.75-1,.25h-7.15l.35-2h6.8l27.4-48.3v-5.15h-15.95l-15.45-12.8-.25-2.8M36.55,82.95h-7.15l-1-.25-.75-.75L.25,33.65l-.25-1v-5.15c0-.57.18-1.03.55-1.4.4-.4.88-.6,1.45-.6h15.2l16.5-13.65-.3,2.9-15.45,12.75H2v5.15l27.4,48.3h6.8l.35,2" fill="#704423"/><path d="M85.85,27.5h15.95v5.15l-27.4,48.3h-3.5l14.95-53.45M32.9,80.95h-3.5L2,32.65v-5.15h15.95l14.95,53.45" fill="#a36331"/><path d="M71.8,29.3l4.25,6.8-8.55,44.85h-7.1l5.05-27.75,6.85-16.05.15-1-.65-6.85M38.95,8.55l12.95-6.55,13,6.55v18.65h-25.95V8.55M32.05,29.25l-.65,6.95.15.95,6.8,16,5.05,27.8h-7.1l-8.55-44.85,4.3-6.85" fill="#eee"/><path d="M32.05,29.25l-4.3,6.85,8.55,44.85h-3.4l-14.95-53.45,15.45-12.75-1.35,14.5M70.9,80.95h-3.4l8.55-44.85-4.25-6.8-1.4-14.6,15.45,12.8-14.95,53.45" fill="#bb6c2e"/><path d="M67.25,82.95h-6.85l-1.1-.3c-.33-.23-.58-.53-.75-.9-.17-.37-.2-.75-.1-1.15l3.5-19.1,3.5-8.3-5.05,27.75h7.2l-.35,2M41.9,61.5l3.45,19.1c.1.4.07.78-.1,1.15l-.75.9-1.1.3h-6.85l-.35-2h7.2l-5.05-27.8,3.55,8.35M38.95,6.3L51,.25l.9-.25.9.25,12.1,6.1v2.2l-13-6.55-12.95,6.55v-2.25" fill="#c4c4c4"/><path d="M64.9,8.55l3.05,1.55,2.5,26.25-12.2,28.6h-12.7l-12.15-28.6,2.45-26.25,3.1-1.55v18.65h25.95V8.55M45.85,52.9l.85,2h10.4l8.25-19.35-.45-4.9h-25.95l-.45,4.9,7.35,17.35" fill="#dbdbdb"/><path d="M45.85,52.9h6.05v-22.25h13l.45,4.9-8.25,19.35h-10.4l-.85-2" fill="#544763"/><path d="M45.85,52.9l-7.35-17.35.45-4.9h12.95v22.25h-6.05" fill="#4a3c55"/></g></svg>