<?xml version="1.0" encoding="UTF-8"?><svg id="Calque_2" xmlns="http://www.w3.org/2000/svg" viewBox="0 0 111.5 74.95"><g id="Calque_1-2"><path d="M102.45,41.5l.3-.8-.3.85v-.05" fill="#9c3"/><path d="M102.45,41.5l-1-2.75.4-.45c.3-.23.65-.37,1.05-.4l1.1.25,6.45,3.45c.33.17.6.42.8.75l.25,1.05-.3,1.05-16.8,26.4-.95.75-1.2.1-1.5-.35.75-1.9.15.05,1.05.25,16.8-26.4-6.45-3.45-.3.8-.3.8M63.5,72.95v2h-15.5v-2h15.5M10.2,38.95l-1.05,2.8-.7-1.85-6.45,3.45,16.8,26.4,1.05-.25h.05l.7,1.9-1.3.3-1.25-.1-.9-.75L.35,44.45c-.23-.33-.35-.68-.35-1.05s.1-.72.3-1.05c.17-.33.42-.58.75-.75l6.45-3.45c.33-.2.7-.28,1.1-.25.4.03.75.17,1.05.4l.55.65" fill="#1884b4"/><path d="M10.2,38.95l30.4-16.5,1.25-2.3c.17-.33.43-.6.8-.8l2.85-1.55,1.6,1.4-3.5,1.9-1.5,2.8-29.4,15.95-3.55,1.9,1.05-2.8M102.45,41.5v.05l-3.8-2-.65-.35-6.5-3.4-7.35-3.95-14.85-8-1.5-2.8-3.4-1.85,1.65-1.35,2.7,1.45.85.8,1.2,2.3,14.3,7.7,7.35,3.95,6.5,3.4,2.5,1.3,1,2.75M91.5,69.45l-.75,1.9-1.55-.35.6-1.95,1.7.4M77.25,66.05l5.55,1.3-.55,1.95-9.9-2.4-1-2.3,5.9,1.45M34.25,66.05l5.9-1.45-.95,2.3-10,2.4-.5-1.95,5.55-1.3M19.9,69.5l1.75-.4.55,1.9-1.6.4-.7-1.9" fill="#8ea8ad"/><path d="M102.45,41.55l.3-.85.3-.8,6.45,3.45-16.8,26.4-1.05-.25,10.8-27.95M56.45,2l13.55,50.5-6.5,20.45h-15.5l-6.5-20.45L55.05,2h1.4M48.15,42.25l-.3,1h15.85l-.25-1-6.35-25.5h-2.7l-6.3,25.5h.05M19.85,69.5l-1.05.25L2,43.35l6.45-3.45.7,1.85,10.05,26,.2.45.1.3.35,1" fill="#36bbf5"/><path d="M19.85,69.5l-.35-1-.1-.3-.2-.45-10.05-26,3.55-1.9,5.05,16.45,2.15,7.05.4,1.2.35,1.15,1.05,3.35-.05.05-1.75.4h-.05M91.65,69.5l-.15-.05-1.7-.4,1.05-3.35,2.9-9.4,5.15-16.6-.25-.15,3.8,2-10.8,27.95M77.25,66.05l-5.9-1.45,6.2-10.7-13.15-34.7,3.4,1.85,1.5,2.8h-.05l.5.95,12.5,31.95-5,9.3M42.1,23.9l1.5-2.8,3.5-1.9-13.15,34.7,6.2,10.7-5.9,1.45-5-9.3,12.85-32.8v-.05" fill="#bdd6db"/><path d="M42.1,23.9v.05l-12.85,32.8,5,9.3-5.55,1.3-.9-3.4-2.55-9.45-7.5,1.8-5.05-16.45,29.4-15.95M69.3,23.85l14.85,8,7.35,3.95,6.5,3.4.65.35.25.15-5.15,16.6-7.5-1.8-2.55,9.45-.9,3.4-5.55-1.3,5-9.3-12.5-31.95-.5-.95h.05" fill="#d3e1e7"/><path d="M93.75,56.3l-2.9,9.4-7.15-1.75,2.55-9.45,7.5,1.8M20.65,65.7l-.35-1.15-.4-1.2-2.15-7.05,7.5-1.8,2.55,9.45-7.15,1.75" fill="#fc0"/><path d="M82.25,69.3l.55-1.95,7,1.7-.6,1.95-6.95-1.7M21.65,69.1l.05-.05,7-1.7.5,1.95-7,1.7-.55-1.9" fill="#bf9900"/><path d="M90.85,65.7l-1.05,3.35-7-1.7.9-3.4,7.15,1.75M21.7,69.05l-1.05-3.35,7.15-1.75.9,3.4-7,1.7" fill="#ecbd02"/><path d="M71.35,64.6l1,2.3-4.2,7.1-.75.7-1,.25h-2.9v-2h2.9l4.95-8.35M45.5,17.8L51.7,1.3c.13-.4.37-.72.7-.95.33-.23.72-.35,1.15-.35h4.4c.43,0,.82.12,1.15.35l.75.95,6.2,16.55-1.65,1.35-6.45-17.2h-4.4l-6.45,17.2-1.6-1.4M48,72.95v2h-2.9l-1-.25-.7-.7-4.2-7.1.95-2.3,4.95,8.35h2.9" fill="#cbcbcb"/><path d="M48,72.95h-2.9l-4.95-8.35-6.2-10.7,13.15-34.7,6.45-17.2h1.5l-13.55,50.5,6.5,20.45M64.4,19.2l13.15,34.7-6.2,10.7-4.95,8.35h-2.9l6.5-20.45L56.45,2h1.5l6.45,17.2" fill="#f2f2f2"/><path d="M63.45,42.25l-6.35-23.5h-2.7l-6.25,23.5h-.05l6.3-25.5h2.7l6.35,25.5" fill="#8ed9fa"/><path d="M63.45,42.25l.25,1h-15.85l.3-1,6.25-23.5h2.7l6.35,23.5" fill="#4a3c55"/></g></svg>