<?xml version="1.0" encoding="UTF-8"?><svg id="Calque_2" xmlns="http://www.w3.org/2000/svg" viewBox="0 0 9 37"><g id="Calque_1-2"><path d="M4.5,3c.4,0,.75.15,1.05.45.3.3.45.65.45,1.05v28c0,.4-.15.75-.45,1.05-.3.3-.65.45-1.05.45s-.75-.15-1.05-.45c-.3-.3-.45-.65-.45-1.05V4.5c0-.4.15-.75.45-1.05.3-.3.65-.45,1.05-.45" fill="#fff"/><path d="M4.5,3c-.4,0-.75.15-1.05.45-.3.3-.45.65-.45,1.05v28c0,.4.15.75.45,1.05.3.3.65.45,1.05.45s.75-.15,1.05-.45c.3-.3.45-.65.45-1.05V4.5c0-.4-.15-.75-.45-1.05-.3-.3-.65-.45-1.05-.45M9,4.5v28c.03,1.2-.4,2.27-1.3,3.2-.93.9-2,1.33-3.2,1.3-1.2.03-2.25-.4-3.15-1.3C.42,34.77-.03,33.7,0,32.5V4.5c-.03-1.2.42-2.25,1.35-3.15C2.25.42,3.3-.03,4.5,0c1.2-.03,2.27.42,3.2,1.35.9.9,1.33,1.95,1.3,3.15" fill="#36bbf5"/></g></svg>